<svg width="366" height="129" viewBox="0 0 366 129" fill="none" xmlns="http://www.w3.org/2000/svg">
<path d="M333.912 37.8873V38.7833L335.32 31.9993H353.752L344.536 75.5193C344.365 76.2873 344.237 77.0126 344.152 77.6953C344.067 78.2926 344.024 78.9326 344.024 79.6153C344.024 81.4926 344.451 82.9006 345.304 83.8393C346.157 84.6926 347.48 85.1193 349.272 85.1193C351.491 85.1193 353.496 84.0953 355.288 82.0473C357.08 79.914 358.531 76.9273 359.64 73.0873H365.016C362.285 80.938 358.744 86.8686 354.392 90.8793C350.04 94.8046 345.005 96.7673 339.288 96.7673C335.619 96.7673 332.675 95.7433 330.456 93.6953C328.323 91.6473 327.085 88.746 326.744 84.9913C324.099 88.9166 321.155 91.8606 317.912 93.8233C314.755 95.786 311.341 96.7673 307.672 96.7673C302.381 96.7673 298.2 94.9753 295.128 91.3913C292.141 87.8073 290.648 82.73 290.648 76.1593C290.648 71.3806 291.373 66.3886 292.824 61.1833C294.275 55.978 296.28 51.242 298.84 46.9753C301.997 41.9406 305.667 38.1006 309.848 35.4553C314.029 32.7246 318.595 31.3593 323.544 31.3593C326.872 31.3593 329.432 31.9566 331.224 33.1513C333.016 34.2606 333.912 35.8393 333.912 37.8873ZM332.76 44.1593C332.76 42.8793 332.291 41.77 331.352 40.8313C330.413 39.8073 329.133 39.2953 327.512 39.2953C322.819 39.2953 318.637 43.2206 314.968 51.0713C311.384 58.922 309.592 66.6873 309.592 74.3673C309.592 77.6953 310.061 80.2126 311 81.9193C311.939 83.5406 313.603 84.3513 315.992 84.3513C318.211 84.3513 320.344 83.2846 322.392 81.1513C324.525 79.018 325.933 76.33 326.616 73.0873L332.76 44.1593Z" fill="#ffffff"/>
<path d="M258.532 82.3033C258.532 80.7673 258.703 78.8473 259.044 76.5433C259.471 74.2393 260.281 70.57 261.476 65.5353C262.671 60.6713 263.439 57.1726 263.78 55.0393C264.121 52.906 264.292 51.114 264.292 49.6633C264.292 47.53 263.908 45.9086 263.14 44.7993C262.372 43.69 261.22 43.1353 259.684 43.1353C257.636 43.1353 255.716 44.202 253.924 46.3353C252.217 48.3833 250.809 51.242 249.7 54.9113L240.996 95.9993H222.564L231.908 51.8393C232.079 51.3273 232.164 50.8153 232.164 50.3033C232.249 49.7913 232.292 49.2366 232.292 48.6393C232.292 46.9326 231.951 45.5673 231.268 44.5433C230.585 43.5193 229.647 43.0073 228.452 43.0073C226.233 43.0073 224.228 44.074 222.436 46.2073C220.644 48.2553 219.193 51.1566 218.084 54.9113L209.38 95.9993H190.948L204.516 31.9993H222.948L221.54 38.6553C223.673 36.1806 226.02 34.346 228.58 33.1513C231.14 31.9566 233.999 31.3593 237.156 31.3593C240.911 31.3593 243.855 32.298 245.988 34.1753C248.207 35.9673 249.657 38.698 250.34 42.3673C252.729 38.698 255.375 35.9673 258.276 34.1753C261.177 32.3833 264.463 31.4873 268.132 31.4873C272.655 31.4873 276.153 32.7246 278.628 35.1993C281.103 37.674 282.34 41.258 282.34 45.9513C282.34 47.914 282.084 50.2606 281.572 52.9913C281.145 55.6366 280.249 59.7326 278.884 65.2793C277.775 69.6313 277.049 72.7033 276.708 74.4953C276.367 76.2873 276.196 77.7806 276.196 78.9753C276.196 80.7673 276.623 82.1326 277.476 83.0713C278.329 83.9246 279.609 84.3513 281.316 84.3513C283.449 84.3513 285.284 83.626 286.82 82.1753C288.356 80.7246 290.105 77.6953 292.068 73.0873H297.444C294.713 81.0233 291.385 86.954 287.46 90.8793C283.62 94.8046 279.012 96.7673 273.636 96.7673C268.857 96.7673 265.145 95.4873 262.5 92.9273C259.855 90.282 258.532 86.7406 258.532 82.3033Z" fill="#ffffff"/>
<path d="M162.282 82.3033C162.282 80.7673 162.453 78.8473 162.794 76.5433C163.221 74.2393 164.031 70.57 165.226 65.5353C166.421 60.6713 167.189 57.1726 167.53 55.0393C167.871 52.906 168.042 51.114 168.042 49.6633C168.042 47.53 167.658 45.9086 166.89 44.7993C166.122 43.69 164.97 43.1353 163.434 43.1353C161.386 43.1353 159.466 44.202 157.674 46.3353C155.967 48.3833 154.559 51.242 153.45 54.9113L144.746 95.9993H126.314L135.658 51.8393C135.829 51.3273 135.914 50.8153 135.914 50.3033C135.999 49.7913 136.042 49.2366 136.042 48.6393C136.042 46.9326 135.701 45.5673 135.018 44.5433C134.335 43.5193 133.397 43.0073 132.202 43.0073C129.983 43.0073 127.978 44.074 126.186 46.2073C124.394 48.2553 122.943 51.1566 121.834 54.9113L113.13 95.9993H94.6981L108.266 31.9993H126.698L125.29 38.6553C127.423 36.1806 129.77 34.346 132.33 33.1513C134.89 31.9566 137.749 31.3593 140.906 31.3593C144.661 31.3593 147.605 32.298 149.738 34.1753C151.957 35.9673 153.407 38.698 154.09 42.3673C156.479 38.698 159.125 35.9673 162.026 34.1753C164.927 32.3833 168.213 31.4873 171.882 31.4873C176.405 31.4873 179.903 32.7246 182.378 35.1993C184.853 37.674 186.09 41.258 186.09 45.9513C186.09 47.914 185.834 50.2606 185.322 52.9913C184.895 55.6366 183.999 59.7326 182.634 65.2793C181.525 69.6313 180.799 72.7033 180.458 74.4953C180.117 76.2873 179.946 77.7806 179.946 78.9753C179.946 80.7673 180.373 82.1326 181.226 83.0713C182.079 83.9246 183.359 84.3513 185.066 84.3513C187.199 84.3513 189.034 83.626 190.57 82.1753C192.106 80.7246 193.855 77.6953 195.818 73.0873H201.194C198.463 81.0233 195.135 86.954 191.21 90.8793C187.37 94.8046 182.762 96.7673 177.386 96.7673C172.607 96.7673 168.895 95.4873 166.25 92.9273C163.605 90.282 162.282 86.7406 162.282 82.3033Z" fill="#ffffff"/>
<path d="M95.7881 43.1353C95.7881 50.218 92.8867 56.4046 87.0841 61.6953C81.2814 66.9006 74.3694 69.7166 66.3481 70.1433C66.2627 71.594 66.1774 72.7033 66.0921 73.4713C66.0921 74.154 66.0921 74.7513 66.0921 75.2633C66.0921 79.1886 66.7321 81.962 68.0121 83.5833C69.3774 85.2046 71.8094 86.0153 75.3081 86.0153C79.3187 86.0153 82.9881 85.1193 86.3161 83.3273C89.7294 81.45 93.6121 78.0366 97.9641 73.0873H102.316C97.3667 81.1086 91.9908 87.082 86.1881 91.0073C80.3854 94.8473 74.0281 96.7673 67.1161 96.7673C60.5454 96.7673 55.5534 95.0606 52.1401 91.6473C48.8121 88.234 47.1481 83.1566 47.1481 76.4153C47.1481 71.5513 47.9161 66.3886 49.4521 60.9273C50.9881 55.466 53.0361 50.602 55.5961 46.3353C58.7534 41.2153 62.5081 37.3753 66.8601 34.8153C71.2974 32.17 76.2467 30.8473 81.7081 30.8473C86.4014 30.8473 89.9001 31.8713 92.2041 33.9193C94.5934 35.882 95.7881 38.954 95.7881 43.1353ZM82.7321 37.6313C79.8307 37.6313 76.8867 40.234 73.9001 45.4393C70.9987 50.5593 68.8227 56.746 67.3721 63.9993C72.3214 63.658 76.6307 61.3966 80.3001 57.2153C84.0547 52.9486 85.9321 48.17 85.9321 42.8793C85.9321 41.0873 85.6761 39.7646 85.1641 38.9113C84.6521 38.058 83.8414 37.6313 82.7321 37.6313Z" fill="#ffffff"/>
<path d="M17.3361 10.2393C21.6881 7.4233 26.3387 5.2473 31.2881 3.7113C36.3227 2.08996 41.2294 1.2793 46.0081 1.2793C46.6054 1.2793 47.2454 1.32196 47.9281 1.4073C48.6961 1.4073 49.7627 1.44996 51.1281 1.53529L31.4161 93.4393C33.3787 93.866 35.4694 94.5913 37.6881 95.6153C39.9921 96.554 43.4481 98.2606 48.0561 100.735C54.9681 104.49 60.2587 106.965 63.9281 108.159C67.5974 109.354 71.0961 109.951 74.4241 109.951C76.3868 109.951 78.2214 109.781 79.9281 109.439C81.7201 109.098 83.4694 108.586 85.1761 107.903C84.4934 114.047 82.9574 118.911 80.5681 122.495C78.1788 126.165 75.2774 127.999 71.8641 127.999C68.7921 127.999 65.5067 127.146 62.0081 125.439C58.5947 123.818 53.3894 120.234 46.3921 114.687C38.3707 108.202 32.1414 103.935 27.7041 101.887C23.2667 99.9246 18.9574 98.9433 14.7761 98.9433C14.0081 98.9433 13.4107 98.9433 12.9841 98.9433C12.5574 98.9433 12.1734 98.986 11.8321 99.0713L30.9041 10.3673C25.1014 12.7566 20.6641 16.3406 17.5921 21.1193C14.5201 25.898 12.9841 31.6153 12.9841 38.2713C12.9841 39.8926 13.0694 41.3006 13.2401 42.4953C13.4961 43.69 13.8801 44.842 14.3921 45.9513C14.5627 46.2926 14.6481 46.5486 14.6481 46.7193C14.7334 46.8046 14.7761 46.89 14.7761 46.9753C9.99741 46.9753 6.49875 45.994 4.28008 44.0313C2.14674 41.9833 1.08008 38.826 1.08008 34.5593C1.08008 30.2926 2.48808 26.026 5.30408 21.7593C8.20541 17.4926 12.2161 13.6526 17.3361 10.2393Z" fill="#ffffff"/>
</svg>
