<svg xmlns="http://www.w3.org/2000/svg" version="1.1" xmlns:xlink="http://www.w3.org/1999/xlink" width="256" height="256"><svg xmlns="http://www.w3.org/2000/svg" width="256" height="256" viewBox="0 0 128 128" role="img" aria-labelledby="t d">
  <title id="SvgjsTitle1003">Workflow Docs Mark</title>
  <desc id="SvgjsDesc1002">A document with a flowing path and spark.</desc>
  <defs>
    <style>
      :root { --wf-accent: #4F46E5; --wf-ink: #0F172A; }
    </style>
  </defs>
  <!-- Document -->
  <g fill="none" stroke="var(--wf-ink)" stroke-width="5" stroke-linejoin="round">
    <path d="M20 10h46l18 18v68c0 8-6 14-14 14H20c-8 0-14-6-14-14V24c0-7.7 6.3-14 14-14z"></path>
    <path d="M66 10v18c0 6 4 10 10 10h18"></path>
  </g>
  <!-- Flow -->
  <g fill="none" stroke="var(--wf-accent)" stroke-width="5" stroke-linecap="round">
    <circle cx="32" cy="44" r="4" fill="var(--wf-accent)"></circle>
    <circle cx="52" cy="62" r="4" fill="var(--wf-accent)"></circle>
    <circle cx="74" cy="82" r="4" fill="var(--wf-accent)"></circle>
    <path d="M32 44c9 6 13 8 20 18s16 10 22 20"></path>
  </g>
  <!-- Spark -->
  <path d="M86 30l4-8 4 8 8 4-8 4-4 8-4-8-8-4 8-4z" fill="var(--wf-accent)"></path>
</svg><style>@media (prefers-color-scheme: light) { :root { filter: none; } }
@media (prefers-color-scheme: dark) { :root { filter: none; } }
</style></svg>